<svg viewBox="0 0 128 128" fill="none" xmlns="http://www.w3.org/2000/svg">
<path fill-rule="evenodd" clip-rule="evenodd" d="M109.581 38.8172C97.5567 24.678 82.3741 16 64.0008 16C45.6275 16 30.4449 24.678 18.4202 38.8172C11.3989 47.0732 6.87448 55.2882 4.57534 61.0231L3.38269 63.998L4.57397 66.9735C6.87035 72.7092 11.3916 80.925 18.4114 89.1818C30.4329 103.322 45.6183 112 64.0008 112C82.3834 112 97.5688 103.322 109.59 89.1818C116.61 80.925 121.131 72.7092 123.428 66.9735L124.619 63.998L123.426 61.0231C121.127 55.2882 116.603 47.0732 109.581 38.8172ZM97.3951 49.1828C100.742 53.118 103.591 57.366 105.928 61.6094C106.411 62.4863 106.833 63.2883 107.194 64.0018C106.833 64.7149 106.412 65.5165 105.929 66.393C103.595 70.6359 100.748 74.8834 97.4024 78.8182C88.1693 89.6783 77.1074 96 64.0028 96C50.8982 96 39.8364 89.6783 30.6033 78.8182C27.258 74.8834 24.4111 70.6359 22.0762 66.393C21.5939 65.5165 21.1726 64.7149 20.8121 64.0018C21.1731 63.2883 21.5949 62.4863 22.0779 61.6094C24.415 57.366 27.2638 53.118 30.6105 49.1828C39.8471 38.322 50.9078 32 64.0028 32C77.0979 32 88.1586 38.322 97.3951 49.1828ZM64 88C50.7452 88 40 77.2548 40 64C40 50.7452 50.7452 40 64 40C77.2548 40 88 50.7452 88 64C88 77.2548 77.2548 88 64 88ZM72 64C72 68.4183 68.4183 72 64 72C59.5817 72 56 68.4183 56 64C56 59.5817 59.5817 56 64 56C68.4183 56 72 59.5817 72 64Z" fill="#5F7367"/>
</svg>
